{
    "asset" : {
        "copyright" : "loafbrr",
        "generator" : "Khronos glTF Blender I/O v1.7.33",
        "version" : "2.0"
    },
    "scene" : 0,
    "scenes" : [
        {
            "name" : "Scene",
            "nodes" : [
                0,
                1,
                2,
                3,
                8
            ]
        }
    ],
    "nodes" : [
        {
            "mesh" : 0,
            "name" : "Magazine",
            "translation" : [
                0,
                0.01561963465064764,
                0.20547866821289062
            ]
        },
        {
            "mesh" : 1,
            "name" : "Bullet",
            "translation" : [
                0.10250004380941391,
                0,
                0.20547866821289062
            ]
        },
        {
            "mesh" : 2,
            "name" : "BulletBox",
            "translation" : [
                -0.12704387307167053,
                0,
                0.20547866821289062
            ]
        },
        {
            "mesh" : 3,
            "name" : "BulletFired",
            "translation" : [
                0.06531631201505661,
                0,
                0.20547866821289062
            ]
        },
        {
            "mesh" : 4,
            "name" : "Bolt",
            "translation" : [
                0.14182521402835846,
                0.11071189492940903,
                0.009428872726857662
            ]
        },
        {
            "mesh" : 5,
            "name" : "Lock",
            "translation" : [
                0.03790229558944702,
                0.0929689109325409,
                0.017192140221595764
            ]
        },
        {
            "mesh" : 6,
            "name" : "Magazine.001",
            "translation" : [
                0.14881522953510284,
                0.0719892680644989,
                0
            ]
        },
        {
            "mesh" : 7,
            "name" : "Trigger",
            "translation" : [
                0.053680144250392914,
                0.058503393083810806,
                0
            ]
        },
        {
            "children" : [
                4,
                5,
                6,
                7
            ],
            "mesh" : 8,
            "name" : "AK"
        }
    ],
    "materials" : [
        {
            "doubleSided" : true,
            "name" : "Ammunition",
            "normalTexture" : {
                "index" : 0
            },
            "pbrMetallicRoughness" : {
                "baseColorTexture" : {
                    "index" : 1
                },
                "metallicRoughnessTexture" : {
                    "index" : 2
                }
            }
        },
        {
            "doubleSided" : true,
            "name" : "AkMaterial",
            "normalTexture" : {
                "index" : 3
            },
            "pbrMetallicRoughness" : {
                "baseColorTexture" : {
                    "index" : 4
                },
                "metallicRoughnessTexture" : {
                    "index" : 5
                }
            }
        }
    ],
    "meshes" : [
        {
            "name" : "Cylinder.016",
            "primitives" : [
                {
                    "attributes" : {
                        "POSITION" : 0,
                        "NORMAL" : 1,
                        "TEXCOORD_0" : 2
                    },
                    "indices" : 3,
                    "material" : 0
                }
            ]
        },
        {
            "name" : "Cylinder.009",
            "primitives" : [
                {
                    "attributes" : {
                        "POSITION" : 4,
                        "NORMAL" : 5,
                        "TEXCOORD_0" : 6
                    },
                    "indices" : 7,
                    "material" : 0
                }
            ]
        },
        {
            "name" : "Cube.008",
            "primitives" : [
                {
                    "attributes" : {
                        "POSITION" : 8,
                        "NORMAL" : 9,
                        "TEXCOORD_0" : 10
                    },
                    "indices" : 11,
                    "material" : 0
                }
            ]
        },
        {
            "name" : "Cylinder.012",
            "primitives" : [
                {
                    "attributes" : {
                        "POSITION" : 12,
                        "NORMAL" : 13,
                        "TEXCOORD_0" : 14
                    },
                    "indices" : 15,
                    "material" : 0
                }
            ]
        },
        {
            "name" : "Cube.001",
            "primitives" : [
                {
                    "attributes" : {
                        "POSITION" : 16,
                        "NORMAL" : 17,
                        "TEXCOORD_0" : 18
                    },
                    "indices" : 19,
                    "material" : 1
                }
            ]
        },
        {
            "name" : "Cube.002",
            "primitives" : [
                {
                    "attributes" : {
                        "POSITION" : 20,
                        "NORMAL" : 21,
                        "TEXCOORD_0" : 22
                    },
                    "indices" : 23,
                    "material" : 1
                }
            ]
        },
        {
            "name" : "Cylinder.017",
            "primitives" : [
                {
                    "attributes" : {
                        "POSITION" : 24,
                        "NORMAL" : 25,
                        "TEXCOORD_0" : 26
                    },
                    "indices" : 3,
                    "material" : 0
                }
            ]
        },
        {
            "name" : "Cylinder.004",
            "primitives" : [
                {
                    "attributes" : {
                        "POSITION" : 27,
                        "NORMAL" : 28,
                        "TEXCOORD_0" : 29
                    },
                    "indices" : 30,
                    "material" : 1
                }
            ]
        },
        {
            "name" : "Cylinder.015",
            "primitives" : [
                {
                    "attributes" : {
                        "POSITION" : 31,
                        "NORMAL" : 32,
                        "TEXCOORD_0" : 33
                    },
                    "indices" : 34,
                    "material" : 1
                }
            ]
        }
    ],
    "textures" : [
        {
            "sampler" : 0,
            "source" : 0
        },
        {
            "sampler" : 0,
            "source" : 1
        },
        {
            "sampler" : 0,
            "source" : 2
        },
        {
            "sampler" : 0,
            "source" : 3
        },
        {
            "sampler" : 0,
            "source" : 4
        },
        {
            "sampler" : 0,
            "source" : 5
        }
    ],
    "images" : [
        {
            "bufferView" : 4,
            "mimeType" : "image/png",
            "name" : "Ammunition_Normal"
        },
        {
            "bufferView" : 5,
            "mimeType" : "image/png",
            "name" : "Ammunition_Albedo"
        },
        {
            "bufferView" : 6,
            "mimeType" : "image/png",
            "name" : "Ammunition_Metalness-Ammunition_Roughness"
        },
        {
            "bufferView" : 23,
            "mimeType" : "image/png",
            "name" : "AK_2_Normal"
        },
        {
            "bufferView" : 24,
            "mimeType" : "image/png",
            "name" : "AK_2_Albedo"
        },
        {
            "bufferView" : 25,
            "mimeType" : "image/png",
            "name" : "AK_2_Metalness-AK_2_Roughness"
        }
    ],
    "accessors" : [
        {
            "bufferView" : 0,
            "componentType" : 5126,
            "count" : 582,
            "max" : [
                0.11454776674509048,
                0.015619635581970215,
                0.19430290162563324
            ],
            "min" : [
                -0.03425914794206619,
                -0.015619635581970215,
                -5.740412034604958e-10
            ],
            "type" : "VEC3"
        },
        {
            "bufferView" : 1,
            "componentType" : 5126,
            "count" : 582,
            "type" : "VEC3"
        },
        {
            "bufferView" : 2,
            "componentType" : 5126,
            "count" : 582,
            "type" : "VEC2"
        },
        {
            "bufferView" : 3,
            "componentType" : 5123,
            "count" : 1482,
            "type" : "SCALAR"
        },
        {
            "bufferView" : 7,
            "componentType" : 5126,
            "count" : 77,
            "max" : [
                0.008031239733099937,
                0.06527522206306458,
                0.00803124438971281
            ],
            "min" : [
                -0.008031271398067474,
                -7.805834201235484e-08,
                -0.008031238801777363
            ],
            "type" : "VEC3"
        },
        {
            "bufferView" : 8,
            "componentType" : 5126,
            "count" : 77,
            "type" : "VEC3"
        },
        {
            "bufferView" : 9,
            "componentType" : 5126,
            "count" : 77,
            "type" : "VEC2"
        },
        {
            "bufferView" : 10,
            "componentType" : 5123,
            "count" : 282,
            "type" : "SCALAR"
        },
        {
            "bufferView" : 11,
            "componentType" : 5126,
            "count" : 24,
            "max" : [
                0.06160243600606918,
                0.10799223184585571,
                0.054831575602293015
            ],
            "min" : [
                -0.06160248443484306,
                -3.066082143732274e-08,
                -0.05483147129416466
            ],
            "type" : "VEC3"
        },
        {
            "bufferView" : 12,
            "componentType" : 5126,
            "count" : 24,
            "type" : "VEC3"
        },
        {
            "bufferView" : 13,
            "componentType" : 5126,
            "count" : 24,
            "type" : "VEC2"
        },
        {
            "bufferView" : 14,
            "componentType" : 5123,
            "count" : 36,
            "type" : "SCALAR"
        },
        {
            "bufferView" : 15,
            "componentType" : 5126,
            "count" : 64,
            "max" : [
                0.008031239733099937,
                0.04712621495127678,
                0.00803124438971281
            ],
            "min" : [
                -0.008031271398067474,
                -7.805834201235484e-08,
                -0.008031238801777363
            ],
            "type" : "VEC3"
        },
        {
            "bufferView" : 16,
            "componentType" : 5126,
            "count" : 64,
            "type" : "VEC3"
        },
        {
            "bufferView" : 17,
            "componentType" : 5126,
            "count" : 64,
            "type" : "VEC2"
        },
        {
            "bufferView" : 18,
            "componentType" : 5123,
            "count" : 246,
            "type" : "SCALAR"
        },
        {
            "bufferView" : 19,
            "componentType" : 5126,
            "count" : 70,
            "max" : [
                0.17013244330883026,
                0.01378892082720995,
                0.022946495562791824
            ],
            "min" : [
                -0.04860220104455948,
                -0.010153726674616337,
                -0.02344045229256153
            ],
            "type" : "VEC3"
        },
        {
            "bufferView" : 20,
            "componentType" : 5126,
            "count" : 70,
            "type" : "VEC3"
        },
        {
            "bufferView" : 21,
            "componentType" : 5126,
            "count" : 70,
            "type" : "VEC2"
        },
        {
            "bufferView" : 22,
            "componentType" : 5123,
            "count" : 156,
            "type" : "SCALAR"
        },
        {
            "bufferView" : 26,
            "componentType" : 5126,
            "count" : 24,
            "max" : [
                0.05544469133019447,
                0.006202311255037785,
                0.0022319008130580187
            ],
            "min" : [
                -0.005144651047885418,
                -0.016166305169463158,
                -1.6544056402612028e-10
            ],
            "type" : "VEC3"
        },
        {
            "bufferView" : 27,
            "componentType" : 5126,
            "count" : 24,
            "type" : "VEC3"
        },
        {
            "bufferView" : 28,
            "componentType" : 5126,
            "count" : 24,
            "type" : "VEC2"
        },
        {
            "bufferView" : 29,
            "componentType" : 5123,
            "count" : 48,
            "type" : "SCALAR"
        },
        {
            "bufferView" : 30,
            "componentType" : 5126,
            "count" : 582,
            "max" : [
                0.11454776674509048,
                0,
                0.015619629994034767
            ],
            "min" : [
                -0.03425914794206619,
                -0.19430290162563324,
                -0.015619641169905663
            ],
            "type" : "VEC3"
        },
        {
            "bufferView" : 31,
            "componentType" : 5126,
            "count" : 582,
            "type" : "VEC3"
        },
        {
            "bufferView" : 32,
            "componentType" : 5126,
            "count" : 582,
            "type" : "VEC2"
        },
        {
            "bufferView" : 33,
            "componentType" : 5126,
            "count" : 96,
            "max" : [
                0.01360992155969143,
                0.007499773520976305,
                0.006940471939742565
            ],
            "min" : [
                -0.009820950217545033,
                -0.03261057287454605,
                -0.006940473336726427
            ],
            "type" : "VEC3"
        },
        {
            "bufferView" : 34,
            "componentType" : 5126,
            "count" : 96,
            "type" : "VEC3"
        },
        {
            "bufferView" : 35,
            "componentType" : 5126,
            "count" : 96,
            "type" : "VEC2"
        },
        {
            "bufferView" : 36,
            "componentType" : 5123,
            "count" : 150,
            "type" : "SCALAR"
        },
        {
            "bufferView" : 37,
            "componentType" : 5126,
            "count" : 1594,
            "max" : [
                0.6152483820915222,
                0.15124426782131195,
                0.021612877026200294
            ],
            "min" : [
                -0.27626875042915344,
                -0.04855608567595482,
                -0.018877243623137474
            ],
            "type" : "VEC3"
        },
        {
            "bufferView" : 38,
            "componentType" : 5126,
            "count" : 1594,
            "type" : "VEC3"
        },
        {
            "bufferView" : 39,
            "componentType" : 5126,
            "count" : 1594,
            "type" : "VEC2"
        },
        {
            "bufferView" : 40,
            "componentType" : 5123,
            "count" : 4128,
            "type" : "SCALAR"
        }
    ],
    "bufferViews" : [
        {
            "buffer" : 0,
            "byteLength" : 6984,
            "byteOffset" : 0
        },
        {
            "buffer" : 0,
            "byteLength" : 6984,
            "byteOffset" : 6984
        },
        {
            "buffer" : 0,
            "byteLength" : 4656,
            "byteOffset" : 13968
        },
        {
            "buffer" : 0,
            "byteLength" : 2964,
            "byteOffset" : 18624
        },
        {
            "buffer" : 0,
            "byteLength" : 235265,
            "byteOffset" : 21588
        },
        {
            "buffer" : 0,
            "byteLength" : 336720,
            "byteOffset" : 256856
        },
        {
            "buffer" : 0,
            "byteLength" : 244211,
            "byteOffset" : 593576
        },
        {
            "buffer" : 0,
            "byteLength" : 924,
            "byteOffset" : 837788
        },
        {
            "buffer" : 0,
            "byteLength" : 924,
            "byteOffset" : 838712
        },
        {
            "buffer" : 0,
            "byteLength" : 616,
            "byteOffset" : 839636
        },
        {
            "buffer" : 0,
            "byteLength" : 564,
            "byteOffset" : 840252
        },
        {
            "buffer" : 0,
            "byteLength" : 288,
            "byteOffset" : 840816
        },
        {
            "buffer" : 0,
            "byteLength" : 288,
            "byteOffset" : 841104
        },
        {
            "buffer" : 0,
            "byteLength" : 192,
            "byteOffset" : 841392
        },
        {
            "buffer" : 0,
            "byteLength" : 72,
            "byteOffset" : 841584
        },
        {
            "buffer" : 0,
            "byteLength" : 768,
            "byteOffset" : 841656
        },
        {
            "buffer" : 0,
            "byteLength" : 768,
            "byteOffset" : 842424
        },
        {
            "buffer" : 0,
            "byteLength" : 512,
            "byteOffset" : 843192
        },
        {
            "buffer" : 0,
            "byteLength" : 492,
            "byteOffset" : 843704
        },
        {
            "buffer" : 0,
            "byteLength" : 840,
            "byteOffset" : 844196
        },
        {
            "buffer" : 0,
            "byteLength" : 840,
            "byteOffset" : 845036
        },
        {
            "buffer" : 0,
            "byteLength" : 560,
            "byteOffset" : 845876
        },
        {
            "buffer" : 0,
            "byteLength" : 312,
            "byteOffset" : 846436
        },
        {
            "buffer" : 0,
            "byteLength" : 247618,
            "byteOffset" : 846748
        },
        {
            "buffer" : 0,
            "byteLength" : 835940,
            "byteOffset" : 1094368
        },
        {
            "buffer" : 0,
            "byteLength" : 528513,
            "byteOffset" : 1930308
        },
        {
            "buffer" : 0,
            "byteLength" : 288,
            "byteOffset" : 2458824
        },
        {
            "buffer" : 0,
            "byteLength" : 288,
            "byteOffset" : 2459112
        },
        {
            "buffer" : 0,
            "byteLength" : 192,
            "byteOffset" : 2459400
        },
        {
            "buffer" : 0,
            "byteLength" : 96,
            "byteOffset" : 2459592
        },
        {
            "buffer" : 0,
            "byteLength" : 6984,
            "byteOffset" : 2459688
        },
        {
            "buffer" : 0,
            "byteLength" : 6984,
            "byteOffset" : 2466672
        },
        {
            "buffer" : 0,
            "byteLength" : 4656,
            "byteOffset" : 2473656
        },
        {
            "buffer" : 0,
            "byteLength" : 1152,
            "byteOffset" : 2478312
        },
        {
            "buffer" : 0,
            "byteLength" : 1152,
            "byteOffset" : 2479464
        },
        {
            "buffer" : 0,
            "byteLength" : 768,
            "byteOffset" : 2480616
        },
        {
            "buffer" : 0,
            "byteLength" : 300,
            "byteOffset" : 2481384
        },
        {
            "buffer" : 0,
            "byteLength" : 19128,
            "byteOffset" : 2481684
        },
        {
            "buffer" : 0,
            "byteLength" : 19128,
            "byteOffset" : 2500812
        },
        {
            "buffer" : 0,
            "byteLength" : 12752,
            "byteOffset" : 2519940
        },
        {
            "buffer" : 0,
            "byteLength" : 8256,
            "byteOffset" : 2532692
        }
    ],
    "samplers" : [
        {
            "magFilter" : 9729,
            "minFilter" : 9987
        }
    ],
    "buffers" : [
        {
            "byteLength" : 2540948,
            "uri" : "data:application/octet-stream;base64,"
        }
    ]
}
